# xmcd CD database file
#
# Track frame offsets:
#	150
#	14153
#	35380
#	51651
#	68932
#	87514
#	115520
#	131051
#	141657
#	159515
#	182563
#	195319
#	217161
#
# Disc length: 3169 seconds
#
# Revision: 0
# Processed by: cddbd v1.5.2PL0 Copyright (c) Steve Scherf et al.
# Submitted via: CDex 1.70beta2
#
DISCID=c80c5f0d
DTITLE=Halie Loren - They Oughta Write a Song...
DYEAR=1900
DGENRE=Jazz
TTITLE0=Thet oughta write as song
TTITLE1=A whiter shade of pale
TTITLE2=Blue skies
TTITLE3=Autumn leaves
TTITLE4=Fever
TTITLE5=God bless the child
TTITLE6=My rainbow race
TTITLE7=Perhaps, perhaps, perhaps
TTITLE8=How should I know
TTITLE9=Summertime
TTITLE10=I don;t miss it that much
TTITLE11=The dock of the bay
TTITLE12=As time goes by
EXTD=
EXTT0=
EXTT1=
EXTT2=
EXTT3=
EXTT4=
EXTT5=
EXTT6=
EXTT7=
EXTT8=
EXTT9=
EXTT10=
EXTT11=
EXTT12=
PLAYORDER=
